<svg xmlns="http://www.w3.org/2000/svg" xmlns:xlink="http://www.w3.org/1999/xlink" width="128" zoomAndPan="magnify" viewBox="0 0 96 30.000001" height="40" preserveAspectRatio="xMidYMid meet" version="1.0"><defs><g/><clipPath id="ca596a614e"><path d="M 76 2.902344 L 83 2.902344 L 83 9 L 76 9 Z M 76 2.902344 " clip-rule="nonzero"/></clipPath><clipPath id="dcc6bc8876"><path d="M 69.496094 11 L 76 11 L 76 17 L 69.496094 17 Z M 69.496094 11 " clip-rule="nonzero"/></clipPath><clipPath id="463c1fc32d"><path d="M 88 20 L 91.273438 20 L 91.273438 23 L 88 23 Z M 88 20 " clip-rule="nonzero"/></clipPath><clipPath id="2046c369d6"><path d="M 88.730469 20.382812 L 91.273438 20.382812 L 91.273438 22.863281 L 88.730469 22.863281 Z M 88.730469 20.382812 " clip-rule="nonzero"/></clipPath><clipPath id="255bfe5a3b"><path d="M 69.496094 21 L 85 21 L 85 23.226562 L 69.496094 23.226562 Z M 69.496094 21 " clip-rule="nonzero"/></clipPath><clipPath id="dcec76b827"><path d="M 69.496094 21.921875 L 84.386719 21.921875 L 84.386719 23.21875 L 69.496094 23.21875 Z M 69.496094 21.921875 " clip-rule="nonzero"/></clipPath><clipPath id="cce238900d"><path d="M 69.496094 22 L 85 22 L 85 23.226562 L 69.496094 23.226562 Z M 69.496094 22 " clip-rule="nonzero"/></clipPath><clipPath id="074c31250e"><path d="M 69.496094 22.523438 L 84.386719 22.523438 L 84.386719 23.21875 L 69.496094 23.21875 Z M 69.496094 22.523438 " clip-rule="nonzero"/></clipPath></defs><g fill="#3c4937" fill-opacity="1"><g transform="translate(10.871242, 17.845439)"><g><path d="M 0.71875 -1.578125 L 4.609375 -10.375 C 4.753906 -10.6875 4.945312 -10.925781 5.1875 -11.09375 C 5.425781 -11.269531 5.710938 -11.359375 6.046875 -11.359375 L 6.203125 -11.359375 C 6.535156 -11.359375 6.816406 -11.269531 7.046875 -11.09375 C 7.285156 -10.925781 7.472656 -10.6875 7.609375 -10.375 L 11.515625 -1.578125 C 11.597656 -1.347656 11.640625 -1.179688 11.640625 -1.078125 C 11.640625 -0.753906 11.523438 -0.476562 11.296875 -0.25 C 11.078125 -0.0195312 10.800781 0.09375 10.46875 0.09375 C 10.1875 0.09375 9.945312 0.015625 9.75 -0.140625 C 9.5625 -0.296875 9.410156 -0.5 9.296875 -0.75 L 8.546875 -2.5 L 3.625 -2.5 L 2.84375 -0.671875 C 2.738281 -0.421875 2.585938 -0.226562 2.390625 -0.09375 C 2.191406 0.03125 1.960938 0.09375 1.703125 0.09375 C 1.390625 0.09375 1.125 -0.015625 0.90625 -0.234375 C 0.6875 -0.460938 0.578125 -0.734375 0.578125 -1.046875 C 0.578125 -1.140625 0.585938 -1.226562 0.609375 -1.3125 C 0.640625 -1.40625 0.675781 -1.492188 0.71875 -1.578125 Z M 4.53125 -4.671875 L 7.640625 -4.671875 L 6.078125 -8.375 Z M 4.53125 -4.671875 "/></g></g></g><g fill="#3c4937" fill-opacity="1"><g transform="translate(21.440253, 17.845439)"><g><path d="M 1.015625 -7.4375 C 1.015625 -7.78125 1.128906 -8.066406 1.359375 -8.296875 C 1.597656 -8.535156 1.890625 -8.65625 2.234375 -8.65625 C 2.578125 -8.65625 2.863281 -8.535156 3.09375 -8.296875 C 3.332031 -8.066406 3.453125 -7.78125 3.453125 -7.4375 L 3.453125 -3.78125 C 3.453125 -2.625 3.941406 -2.046875 4.921875 -2.046875 C 5.398438 -2.046875 5.769531 -2.191406 6.03125 -2.484375 C 6.300781 -2.773438 6.4375 -3.207031 6.4375 -3.78125 L 6.4375 -7.4375 C 6.4375 -7.78125 6.550781 -8.066406 6.78125 -8.296875 C 7.019531 -8.535156 7.3125 -8.65625 7.65625 -8.65625 C 7.988281 -8.65625 8.269531 -8.535156 8.5 -8.296875 C 8.738281 -8.066406 8.859375 -7.78125 8.859375 -7.4375 L 8.859375 -1.125 C 8.859375 -0.78125 8.738281 -0.488281 8.5 -0.25 C 8.269531 -0.0195312 7.988281 0.09375 7.65625 0.09375 C 7.3125 0.09375 7.019531 -0.0195312 6.78125 -0.25 C 6.550781 -0.488281 6.4375 -0.78125 6.4375 -1.125 L 6.4375 -1.21875 C 6.15625 -0.851562 5.816406 -0.53125 5.421875 -0.25 C 5.035156 0.0195312 4.535156 0.15625 3.921875 0.15625 C 2.984375 0.15625 2.265625 -0.117188 1.765625 -0.671875 C 1.265625 -1.234375 1.015625 -2.015625 1.015625 -3.015625 Z M 1.015625 -7.4375 "/></g></g></g><g fill="#3c4937" fill-opacity="1"><g transform="translate(29.726215, 17.845439)"><g><path d="M 5.15625 -8.71875 C 5.800781 -8.71875 6.359375 -8.632812 6.828125 -8.46875 C 7.296875 -8.300781 7.710938 -8.066406 8.078125 -7.765625 C 8.160156 -7.703125 8.242188 -7.597656 8.328125 -7.453125 C 8.421875 -7.316406 8.46875 -7.144531 8.46875 -6.9375 C 8.46875 -6.625 8.359375 -6.363281 8.140625 -6.15625 C 7.929688 -5.945312 7.671875 -5.84375 7.359375 -5.84375 C 7.203125 -5.84375 7.0625 -5.867188 6.9375 -5.921875 C 6.820312 -5.972656 6.726562 -6.023438 6.65625 -6.078125 C 6.445312 -6.253906 6.222656 -6.390625 5.984375 -6.484375 C 5.742188 -6.578125 5.460938 -6.625 5.140625 -6.625 C 4.835938 -6.625 4.554688 -6.5625 4.296875 -6.4375 C 4.046875 -6.320312 3.828125 -6.15625 3.640625 -5.9375 C 3.460938 -5.726562 3.320312 -5.484375 3.21875 -5.203125 C 3.113281 -4.921875 3.0625 -4.617188 3.0625 -4.296875 L 3.0625 -4.265625 C 3.0625 -3.929688 3.113281 -3.617188 3.21875 -3.328125 C 3.320312 -3.046875 3.46875 -2.796875 3.65625 -2.578125 C 3.84375 -2.367188 4.070312 -2.203125 4.34375 -2.078125 C 4.613281 -1.960938 4.910156 -1.90625 5.234375 -1.90625 C 5.554688 -1.90625 5.847656 -1.953125 6.109375 -2.046875 C 6.367188 -2.148438 6.609375 -2.296875 6.828125 -2.484375 C 6.898438 -2.546875 6.988281 -2.597656 7.09375 -2.640625 C 7.207031 -2.691406 7.335938 -2.71875 7.484375 -2.71875 C 7.773438 -2.71875 8.019531 -2.613281 8.21875 -2.40625 C 8.414062 -2.207031 8.515625 -1.960938 8.515625 -1.671875 C 8.515625 -1.515625 8.476562 -1.367188 8.40625 -1.234375 C 8.34375 -1.109375 8.257812 -1 8.15625 -0.90625 C 7.789062 -0.582031 7.367188 -0.316406 6.890625 -0.109375 C 6.421875 0.0859375 5.832031 0.1875 5.125 0.1875 C 4.488281 0.1875 3.894531 0.0703125 3.34375 -0.15625 C 2.789062 -0.394531 2.316406 -0.710938 1.921875 -1.109375 C 1.535156 -1.503906 1.226562 -1.972656 1 -2.515625 C 0.78125 -3.054688 0.671875 -3.628906 0.671875 -4.234375 L 0.671875 -4.265625 C 0.671875 -4.867188 0.78125 -5.441406 1 -5.984375 C 1.226562 -6.523438 1.535156 -7 1.921875 -7.40625 C 2.316406 -7.8125 2.789062 -8.128906 3.34375 -8.359375 C 3.90625 -8.597656 4.507812 -8.71875 5.15625 -8.71875 Z M 5.15625 -8.71875 "/></g></g></g><g fill="#3c4937" fill-opacity="1"><g transform="translate(37.181982, 17.845439)"><g><path d="M 1.03125 -8.5625 L 1.484375 -8.5625 L 1.484375 -9.625 C 1.484375 -9.96875 1.597656 -10.253906 1.828125 -10.484375 C 2.066406 -10.722656 2.359375 -10.84375 2.703125 -10.84375 C 3.035156 -10.84375 3.316406 -10.722656 3.546875 -10.484375 C 3.785156 -10.253906 3.90625 -9.96875 3.90625 -9.625 L 3.90625 -8.5625 L 4.984375 -8.5625 C 5.265625 -8.5625 5.503906 -8.457031 5.703125 -8.25 C 5.910156 -8.050781 6.015625 -7.804688 6.015625 -7.515625 C 6.015625 -7.234375 5.910156 -6.988281 5.703125 -6.78125 C 5.503906 -6.582031 5.265625 -6.484375 4.984375 -6.484375 L 3.90625 -6.484375 L 3.90625 -2.828125 C 3.90625 -2.273438 4.164062 -2 4.6875 -2 C 4.738281 -2 4.796875 -2 4.859375 -2 C 4.921875 -2.007812 4.960938 -2.015625 4.984375 -2.015625 C 5.253906 -2.015625 5.488281 -1.914062 5.6875 -1.71875 C 5.882812 -1.519531 5.984375 -1.28125 5.984375 -1 C 5.984375 -0.75 5.914062 -0.546875 5.78125 -0.390625 C 5.644531 -0.242188 5.472656 -0.128906 5.265625 -0.046875 C 5.054688 0.0234375 4.835938 0.0703125 4.609375 0.09375 C 4.378906 0.125 4.164062 0.140625 3.96875 0.140625 C 3.613281 0.140625 3.28125 0.0976562 2.96875 0.015625 C 2.65625 -0.0546875 2.390625 -0.191406 2.171875 -0.390625 C 1.960938 -0.597656 1.796875 -0.863281 1.671875 -1.1875 C 1.546875 -1.519531 1.484375 -1.929688 1.484375 -2.421875 L 1.484375 -6.484375 L 1.03125 -6.484375 C 0.75 -6.484375 0.503906 -6.582031 0.296875 -6.78125 C 0.0976562 -6.988281 0 -7.234375 0 -7.515625 C 0 -7.804688 0.0976562 -8.050781 0.296875 -8.25 C 0.503906 -8.457031 0.75 -8.5625 1.03125 -8.5625 Z M 1.03125 -8.5625 "/></g></g></g><g fill="#3c4937" fill-opacity="1"><g transform="translate(42.14715, 17.845439)"><g><path d="M 2.40625 -8.65625 C 2.75 -8.65625 3.035156 -8.535156 3.265625 -8.296875 C 3.503906 -8.066406 3.625 -7.78125 3.625 -7.4375 L 3.625 -1.125 C 3.625 -0.78125 3.503906 -0.488281 3.265625 -0.25 C 3.035156 -0.0195312 2.75 0.09375 2.40625 0.09375 C 2.070312 0.09375 1.785156 -0.0195312 1.546875 -0.25 C 1.316406 -0.488281 1.203125 -0.78125 1.203125 -1.125 L 1.203125 -7.4375 C 1.203125 -7.78125 1.316406 -8.066406 1.546875 -8.296875 C 1.785156 -8.535156 2.070312 -8.65625 2.40625 -8.65625 Z M 2.40625 -11.734375 C 2.789062 -11.734375 3.113281 -11.628906 3.375 -11.421875 C 3.632812 -11.222656 3.765625 -10.953125 3.765625 -10.609375 L 3.765625 -10.578125 C 3.765625 -10.222656 3.632812 -9.941406 3.375 -9.734375 C 3.113281 -9.523438 2.789062 -9.421875 2.40625 -9.421875 C 2.03125 -9.421875 1.707031 -9.523438 1.4375 -9.734375 C 1.175781 -9.941406 1.046875 -10.222656 1.046875 -10.578125 L 1.046875 -10.609375 C 1.046875 -10.953125 1.175781 -11.222656 1.4375 -11.421875 C 1.707031 -11.628906 2.03125 -11.734375 2.40625 -11.734375 Z M 2.40625 -11.734375 "/></g></g></g><g fill="#3c4937" fill-opacity="1"><g transform="translate(45.308235, 17.845439)"><g><path d="M 5.3125 -8.71875 C 5.976562 -8.71875 6.59375 -8.601562 7.15625 -8.375 C 7.71875 -8.144531 8.203125 -7.828125 8.609375 -7.421875 C 9.023438 -7.023438 9.347656 -6.554688 9.578125 -6.015625 C 9.816406 -5.484375 9.9375 -4.910156 9.9375 -4.296875 L 9.9375 -4.265625 C 9.9375 -3.648438 9.816406 -3.070312 9.578125 -2.53125 C 9.347656 -1.988281 9.023438 -1.515625 8.609375 -1.109375 C 8.191406 -0.710938 7.703125 -0.394531 7.140625 -0.15625 C 6.578125 0.0703125 5.957031 0.1875 5.28125 0.1875 C 4.625 0.1875 4.015625 0.0703125 3.453125 -0.15625 C 2.890625 -0.382812 2.398438 -0.695312 1.984375 -1.09375 C 1.578125 -1.488281 1.253906 -1.957031 1.015625 -2.5 C 0.785156 -3.039062 0.671875 -3.617188 0.671875 -4.234375 L 0.671875 -4.265625 C 0.671875 -4.878906 0.785156 -5.453125 1.015625 -5.984375 C 1.253906 -6.523438 1.582031 -7 2 -7.40625 C 2.414062 -7.8125 2.90625 -8.128906 3.46875 -8.359375 C 4.03125 -8.597656 4.644531 -8.71875 5.3125 -8.71875 Z M 5.3125 -1.90625 C 5.664062 -1.90625 5.976562 -1.960938 6.25 -2.078125 C 6.519531 -2.203125 6.75 -2.367188 6.9375 -2.578125 C 7.132812 -2.796875 7.28125 -3.046875 7.375 -3.328125 C 7.476562 -3.609375 7.53125 -3.910156 7.53125 -4.234375 L 7.53125 -4.265625 C 7.53125 -4.585938 7.476562 -4.890625 7.375 -5.171875 C 7.269531 -5.453125 7.113281 -5.703125 6.90625 -5.921875 C 6.707031 -6.140625 6.472656 -6.3125 6.203125 -6.4375 C 5.929688 -6.5625 5.625 -6.625 5.28125 -6.625 C 4.9375 -6.625 4.625 -6.5625 4.34375 -6.4375 C 4.070312 -6.320312 3.84375 -6.15625 3.65625 -5.9375 C 3.46875 -5.726562 3.320312 -5.484375 3.21875 -5.203125 C 3.113281 -4.921875 3.0625 -4.617188 3.0625 -4.296875 L 3.0625 -4.265625 C 3.0625 -3.941406 3.113281 -3.640625 3.21875 -3.359375 C 3.332031 -3.078125 3.488281 -2.828125 3.6875 -2.609375 C 3.894531 -2.390625 4.132812 -2.21875 4.40625 -2.09375 C 4.6875 -1.96875 4.988281 -1.90625 5.3125 -1.90625 Z M 5.3125 -1.90625 "/></g></g></g><g fill="#3c4937" fill-opacity="1"><g transform="translate(54.24878, 17.845439)"><g><path d="M 2.296875 -8.65625 C 2.640625 -8.65625 2.925781 -8.535156 3.15625 -8.296875 C 3.394531 -8.066406 3.515625 -7.78125 3.515625 -7.4375 L 3.515625 -7.34375 C 3.785156 -7.707031 4.117188 -8.023438 4.515625 -8.296875 C 4.910156 -8.578125 5.410156 -8.71875 6.015625 -8.71875 C 6.953125 -8.71875 7.671875 -8.4375 8.171875 -7.875 C 8.671875 -7.320312 8.921875 -6.546875 8.921875 -5.546875 L 8.921875 -1.125 C 8.921875 -0.78125 8.800781 -0.488281 8.5625 -0.25 C 8.332031 -0.0195312 8.050781 0.09375 7.71875 0.09375 C 7.375 0.09375 7.082031 -0.0195312 6.84375 -0.25 C 6.613281 -0.488281 6.5 -0.78125 6.5 -1.125 L 6.5 -4.78125 C 6.5 -5.9375 6.007812 -6.515625 5.03125 -6.515625 C 4.550781 -6.515625 4.175781 -6.367188 3.90625 -6.078125 C 3.644531 -5.785156 3.515625 -5.351562 3.515625 -4.78125 L 3.515625 -1.125 C 3.515625 -0.78125 3.394531 -0.488281 3.15625 -0.25 C 2.925781 -0.0195312 2.640625 0.09375 2.296875 0.09375 C 1.953125 0.09375 1.660156 -0.0195312 1.421875 -0.25 C 1.191406 -0.488281 1.078125 -0.78125 1.078125 -1.125 L 1.078125 -7.4375 C 1.078125 -7.78125 1.191406 -8.066406 1.421875 -8.296875 C 1.660156 -8.535156 1.953125 -8.65625 2.296875 -8.65625 Z M 2.296875 -8.65625 "/></g></g></g><g fill="#3c4937" fill-opacity="1"><g transform="translate(62.53474, 17.845439)"><g><path d="M 0.578125 -2.484375 C 0.578125 -2.953125 0.660156 -3.359375 0.828125 -3.703125 C 0.992188 -4.046875 1.226562 -4.328125 1.53125 -4.546875 C 1.84375 -4.773438 2.207031 -4.941406 2.625 -5.046875 C 3.039062 -5.160156 3.507812 -5.21875 4.03125 -5.21875 C 4.46875 -5.21875 4.847656 -5.1875 5.171875 -5.125 C 5.492188 -5.0625 5.804688 -4.976562 6.109375 -4.875 L 6.109375 -5.015625 C 6.109375 -6.054688 5.5 -6.578125 4.28125 -6.578125 C 3.9375 -6.578125 3.625 -6.566406 3.34375 -6.546875 C 3.0625 -6.523438 2.816406 -6.457031 2.609375 -6.34375 C 2.515625 -6.300781 2.394531 -6.28125 2.25 -6.28125 C 1.976562 -6.28125 1.742188 -6.375 1.546875 -6.5625 C 1.347656 -6.75 1.25 -6.984375 1.25 -7.265625 C 1.25 -7.472656 1.304688 -7.660156 1.421875 -7.828125 C 1.546875 -8.003906 1.707031 -8.128906 1.90625 -8.203125 C 2.28125 -8.359375 2.679688 -8.472656 3.109375 -8.546875 C 3.546875 -8.617188 4.050781 -8.65625 4.625 -8.65625 C 5.882812 -8.65625 6.835938 -8.351562 7.484375 -7.75 C 8.128906 -7.144531 8.453125 -6.21875 8.453125 -4.96875 L 8.453125 -1.0625 C 8.453125 -0.738281 8.335938 -0.460938 8.109375 -0.234375 C 7.878906 -0.015625 7.597656 0.09375 7.265625 0.09375 C 6.910156 0.09375 6.625 -0.0078125 6.40625 -0.21875 C 6.195312 -0.425781 6.09375 -0.65625 6.09375 -0.90625 L 6.09375 -0.921875 C 5.800781 -0.597656 5.445312 -0.335938 5.03125 -0.140625 C 4.625 0.0546875 4.117188 0.15625 3.515625 0.15625 C 3.109375 0.15625 2.726562 0.101562 2.375 0 C 2.019531 -0.113281 1.707031 -0.28125 1.4375 -0.5 C 1.164062 -0.726562 0.953125 -1.003906 0.796875 -1.328125 C 0.648438 -1.660156 0.578125 -2.035156 0.578125 -2.453125 Z M 2.921875 -2.59375 L 2.921875 -2.5625 C 2.921875 -2.226562 3.039062 -1.96875 3.28125 -1.78125 C 3.53125 -1.601562 3.851562 -1.515625 4.25 -1.515625 C 4.820312 -1.515625 5.28125 -1.648438 5.625 -1.921875 C 5.96875 -2.203125 6.140625 -2.566406 6.140625 -3.015625 L 6.140625 -3.453125 C 5.929688 -3.546875 5.695312 -3.617188 5.4375 -3.671875 C 5.175781 -3.734375 4.894531 -3.765625 4.59375 -3.765625 C 4.070312 -3.765625 3.660156 -3.660156 3.359375 -3.453125 C 3.066406 -3.253906 2.921875 -2.96875 2.921875 -2.59375 Z M 2.921875 -2.59375 "/></g></g></g><g fill="#3c4937" fill-opacity="1"><g transform="translate(70.325778, 17.845439)"><g><path d="M 1.078125 -1.125 L 1.078125 -7.4375 C 1.078125 -7.78125 1.191406 -8.066406 1.421875 -8.296875 C 1.660156 -8.535156 1.953125 -8.65625 2.296875 -8.65625 C 2.640625 -8.65625 2.925781 -8.535156 3.15625 -8.296875 C 3.394531 -8.066406 3.515625 -7.78125 3.515625 -7.4375 L 3.515625 -7.0625 C 3.691406 -7.476562 3.914062 -7.847656 4.1875 -8.171875 C 4.46875 -8.492188 4.789062 -8.65625 5.15625 -8.65625 C 5.53125 -8.65625 5.820312 -8.539062 6.03125 -8.3125 C 6.238281 -8.09375 6.34375 -7.8125 6.34375 -7.46875 C 6.34375 -7.15625 6.25 -6.90625 6.0625 -6.71875 C 5.882812 -6.53125 5.671875 -6.40625 5.421875 -6.34375 C 4.804688 -6.175781 4.332031 -5.851562 4 -5.375 C 3.675781 -4.90625 3.515625 -4.242188 3.515625 -3.390625 L 3.515625 -1.125 C 3.515625 -0.78125 3.394531 -0.488281 3.15625 -0.25 C 2.925781 -0.0195312 2.640625 0.09375 2.296875 0.09375 C 1.953125 0.09375 1.660156 -0.0195312 1.421875 -0.25 C 1.191406 -0.488281 1.078125 -0.78125 1.078125 -1.125 Z M 1.078125 -1.125 "/></g></g></g><g fill="#3c4937" fill-opacity="1"><g transform="translate(75.338842, 17.845439)"><g><path d="M 0.671875 -4.265625 C 0.671875 -4.867188 0.773438 -5.441406 0.984375 -5.984375 C 1.191406 -6.523438 1.476562 -7 1.84375 -7.40625 C 2.21875 -7.8125 2.664062 -8.128906 3.1875 -8.359375 C 3.707031 -8.597656 4.28125 -8.71875 4.90625 -8.71875 C 5.625 -8.71875 6.238281 -8.585938 6.75 -8.328125 C 7.269531 -8.066406 7.695312 -7.734375 8.03125 -7.328125 C 8.375 -6.921875 8.625 -6.472656 8.78125 -5.984375 C 8.9375 -5.503906 9.015625 -5.039062 9.015625 -4.59375 C 9.015625 -4.25 8.90625 -3.96875 8.6875 -3.75 C 8.476562 -3.539062 8.210938 -3.4375 7.890625 -3.4375 L 3.078125 -3.4375 C 3.191406 -2.882812 3.429688 -2.460938 3.796875 -2.171875 C 4.171875 -1.890625 4.628906 -1.75 5.171875 -1.75 C 5.515625 -1.75 5.828125 -1.800781 6.109375 -1.90625 C 6.390625 -2.007812 6.65625 -2.148438 6.90625 -2.328125 C 6.988281 -2.390625 7.070312 -2.4375 7.15625 -2.46875 C 7.25 -2.5 7.359375 -2.515625 7.484375 -2.515625 C 7.765625 -2.515625 7.992188 -2.425781 8.171875 -2.25 C 8.347656 -2.070312 8.4375 -1.84375 8.4375 -1.5625 C 8.4375 -1.40625 8.398438 -1.265625 8.328125 -1.140625 C 8.265625 -1.023438 8.191406 -0.925781 8.109375 -0.84375 C 7.734375 -0.53125 7.300781 -0.28125 6.8125 -0.09375 C 6.332031 0.09375 5.773438 0.1875 5.140625 0.1875 C 4.503906 0.1875 3.910156 0.0820312 3.359375 -0.125 C 2.804688 -0.34375 2.332031 -0.644531 1.9375 -1.03125 C 1.539062 -1.425781 1.226562 -1.894531 1 -2.4375 C 0.78125 -2.976562 0.671875 -3.578125 0.671875 -4.234375 Z M 3.046875 -4.953125 L 6.703125 -4.953125 C 6.628906 -5.492188 6.4375 -5.929688 6.125 -6.265625 C 5.820312 -6.597656 5.414062 -6.765625 4.90625 -6.765625 C 4.394531 -6.765625 3.976562 -6.597656 3.65625 -6.265625 C 3.34375 -5.941406 3.140625 -5.503906 3.046875 -4.953125 Z M 3.046875 -4.953125 "/></g></g></g><g clip-path="url(#ca596a614e)"><path fill="#512722" d="M 81.011719 7.957031 L 77.054688 4.59375 C 76.8125 4.386719 76.78125 4.019531 76.984375 3.773438 L 77.46875 3.191406 C 77.671875 2.945312 78.035156 2.914062 78.277344 3.121094 L 82.230469 6.480469 C 82.476562 6.6875 82.507812 7.054688 82.304688 7.300781 L 81.820312 7.882812 C 81.617188 8.128906 81.253906 8.160156 81.011719 7.957031 " fill-opacity="1" fill-rule="nonzero"/><path fill="#512722" d="M 81.011719 7.957031 L 81.023438 7.941406 L 77.066406 4.578125 C 76.9375 4.464844 76.871094 4.308594 76.871094 4.148438 C 76.871094 4.019531 76.914062 3.890625 77 3.785156 L 77.480469 3.203125 C 77.589844 3.070312 77.75 3.003906 77.90625 3.003906 C 78.035156 3.003906 78.160156 3.046875 78.265625 3.132812 L 82.21875 6.496094 C 82.351562 6.609375 82.417969 6.765625 82.417969 6.929688 C 82.417969 7.054688 82.375 7.183594 82.289062 7.289062 L 81.808594 7.871094 C 81.695312 8.003906 81.539062 8.074219 81.378906 8.074219 C 81.253906 8.074219 81.128906 8.03125 81.023438 7.941406 L 81.011719 7.957031 L 81 7.96875 C 81.109375 8.0625 81.246094 8.109375 81.378906 8.109375 C 81.550781 8.109375 81.71875 8.039062 81.835938 7.894531 L 82.316406 7.3125 C 82.410156 7.203125 82.457031 7.0625 82.457031 6.929688 C 82.457031 6.757812 82.382812 6.585938 82.246094 6.46875 L 78.289062 3.105469 C 78.175781 3.011719 78.042969 2.964844 77.90625 2.964844 C 77.738281 2.964844 77.570312 3.039062 77.453125 3.179688 L 76.972656 3.761719 C 76.878906 3.875 76.832031 4.011719 76.832031 4.148438 C 76.832031 4.316406 76.90625 4.488281 77.042969 4.605469 L 81 7.96875 L 81.011719 7.957031 " fill-opacity="1" fill-rule="nonzero"/></g><path fill="#351f17" d="M 80.003906 8.976562 L 76.195312 5.734375 L 77.101562 4.640625 L 80.914062 7.878906 L 80.003906 8.976562 " fill-opacity="1" fill-rule="nonzero"/><path fill="#351f17" d="M 80.003906 8.976562 L 80.015625 8.960938 L 76.222656 5.734375 L 77.105469 4.667969 L 80.886719 7.882812 L 79.992188 8.964844 L 80.003906 8.976562 L 80.015625 8.960938 L 80.003906 8.976562 L 80.019531 8.988281 L 80.9375 7.878906 L 77.101562 4.613281 L 76.167969 5.738281 L 80.007812 9 L 80.019531 8.988281 L 80.003906 8.976562 " fill-opacity="1" fill-rule="nonzero"/><path fill="#512722" d="M 78.992188 10.101562 L 75.320312 6.980469 C 75 6.707031 74.957031 6.222656 75.226562 5.898438 C 75.496094 5.570312 75.976562 5.527344 76.296875 5.800781 L 79.96875 8.921875 C 80.289062 9.195312 80.332031 9.683594 80.0625 10.007812 C 79.792969 10.332031 79.3125 10.375 78.992188 10.101562 " fill-opacity="1" fill-rule="nonzero"/><path fill="#512722" d="M 78.992188 10.101562 L 79.003906 10.085938 L 75.332031 6.964844 C 75.15625 6.816406 75.066406 6.605469 75.066406 6.390625 C 75.066406 6.21875 75.125 6.050781 75.242188 5.910156 L 75.226562 5.898438 L 75.238281 5.910156 L 75.242188 5.910156 C 75.386719 5.730469 75.597656 5.640625 75.808594 5.640625 C 75.976562 5.640625 76.144531 5.699219 76.285156 5.816406 L 79.957031 8.9375 C 80.132812 9.085938 80.222656 9.296875 80.222656 9.511719 C 80.222656 9.683594 80.164062 9.855469 80.046875 9.996094 L 80.042969 10 L 80.042969 10.007812 L 80.0625 10.007812 L 80.046875 9.996094 C 79.902344 10.171875 79.691406 10.261719 79.480469 10.261719 C 79.3125 10.261719 79.144531 10.207031 79.003906 10.085938 L 78.980469 10.117188 C 79.125 10.242188 79.304688 10.300781 79.480469 10.300781 C 79.703125 10.300781 79.921875 10.207031 80.078125 10.019531 L 80.082031 10.015625 L 80.082031 10.007812 L 80.0625 10.007812 L 80.078125 10.019531 C 80.199219 9.871094 80.257812 9.691406 80.257812 9.511719 C 80.257812 9.289062 80.164062 9.066406 79.980469 8.910156 L 76.308594 5.789062 C 76.164062 5.664062 75.984375 5.601562 75.808594 5.601562 C 75.585938 5.601562 75.367188 5.699219 75.210938 5.882812 L 75.226562 5.898438 L 75.214844 5.882812 L 75.210938 5.882812 C 75.089844 6.03125 75.03125 6.210938 75.03125 6.390625 C 75.03125 6.617188 75.125 6.839844 75.308594 6.996094 L 78.980469 10.117188 L 78.992188 10.101562 " fill-opacity="1" fill-rule="nonzero"/><g clip-path="url(#dcc6bc8876)"><path fill="#512722" d="M 71.191406 11.636719 L 75.144531 15 C 75.390625 15.207031 75.421875 15.570312 75.21875 15.816406 L 74.734375 16.402344 C 74.53125 16.648438 74.167969 16.679688 73.925781 16.472656 L 69.96875 13.109375 C 69.726562 12.902344 69.695312 12.535156 69.898438 12.289062 L 70.382812 11.707031 C 70.585938 11.460938 70.949219 11.429688 71.191406 11.636719 " fill-opacity="1" fill-rule="nonzero"/><path fill="#512722" d="M 71.191406 11.636719 L 71.179688 11.648438 L 75.132812 15.011719 C 75.265625 15.125 75.332031 15.285156 75.332031 15.445312 C 75.332031 15.574219 75.289062 15.699219 75.203125 15.804688 L 74.722656 16.386719 C 74.609375 16.519531 74.453125 16.589844 74.292969 16.589844 C 74.167969 16.589844 74.042969 16.546875 73.9375 16.457031 L 69.980469 13.09375 C 69.851562 12.984375 69.785156 12.824219 69.785156 12.664062 C 69.785156 12.535156 69.824219 12.40625 69.914062 12.300781 L 70.394531 11.71875 C 70.503906 11.585938 70.664062 11.519531 70.820312 11.519531 C 70.949219 11.519531 71.074219 11.5625 71.179688 11.648438 L 71.203125 11.621094 C 71.089844 11.527344 70.957031 11.480469 70.820312 11.480469 C 70.652344 11.480469 70.484375 11.554688 70.367188 11.695312 L 69.886719 12.277344 C 69.792969 12.390625 69.746094 12.527344 69.746094 12.664062 C 69.746094 12.835938 69.820312 13.003906 69.957031 13.125 L 73.914062 16.488281 C 74.023438 16.582031 74.160156 16.628906 74.292969 16.628906 C 74.464844 16.628906 74.632812 16.554688 74.75 16.414062 L 75.230469 15.832031 C 75.324219 15.71875 75.371094 15.582031 75.371094 15.445312 C 75.371094 15.273438 75.296875 15.101562 75.15625 14.984375 L 71.203125 11.621094 L 71.191406 11.636719 " fill-opacity="1" fill-rule="nonzero"/></g><path fill="#351f17" d="M 72.195312 10.617188 L 76.007812 13.855469 L 75.101562 14.949219 L 71.289062 11.710938 L 72.195312 10.617188 " fill-opacity="1" fill-rule="nonzero"/><path fill="#351f17" d="M 72.195312 10.617188 L 72.183594 10.628906 L 75.980469 13.855469 L 75.097656 14.921875 L 71.316406 11.707031 L 72.210938 10.628906 L 72.195312 10.617188 L 72.183594 10.628906 L 72.195312 10.617188 L 72.183594 10.605469 L 71.265625 11.714844 L 75.101562 14.976562 L 76.035156 13.851562 L 72.195312 10.589844 L 72.183594 10.605469 L 72.195312 10.617188 " fill-opacity="1" fill-rule="nonzero"/><path fill="#512722" d="M 73.210938 9.488281 L 76.882812 12.609375 C 77.203125 12.882812 77.246094 13.367188 76.976562 13.695312 C 76.707031 14.019531 76.226562 14.0625 75.90625 13.789062 L 72.234375 10.667969 C 71.914062 10.394531 71.871094 9.910156 72.140625 9.585938 C 72.410156 9.257812 72.890625 9.214844 73.210938 9.488281 " fill-opacity="1" fill-rule="nonzero"/><path fill="#512722" d="M 73.210938 9.488281 L 73.199219 9.503906 L 76.871094 12.625 C 77.046875 12.773438 77.136719 12.984375 77.136719 13.199219 C 77.136719 13.371094 77.078125 13.542969 76.960938 13.683594 L 76.976562 13.695312 L 76.960938 13.679688 L 76.960938 13.683594 C 76.816406 13.859375 76.605469 13.949219 76.394531 13.949219 C 76.226562 13.949219 76.058594 13.894531 75.917969 13.773438 L 72.246094 10.652344 C 72.070312 10.503906 71.980469 10.292969 71.980469 10.078125 C 71.980469 9.90625 72.039062 9.738281 72.15625 9.597656 L 72.15625 9.59375 L 72.140625 9.585938 L 72.15625 9.597656 C 72.300781 9.417969 72.511719 9.328125 72.722656 9.328125 C 72.890625 9.328125 73.058594 9.386719 73.199219 9.503906 L 73.222656 9.476562 C 73.078125 9.351562 72.898438 9.289062 72.722656 9.289062 C 72.5 9.289062 72.28125 9.386719 72.125 9.570312 L 72.125 9.574219 L 72.140625 9.585938 L 72.125 9.570312 C 72.003906 9.71875 71.945312 9.898438 71.945312 10.078125 C 71.945312 10.304688 72.039062 10.527344 72.222656 10.683594 L 75.894531 13.804688 C 76.039062 13.929688 76.21875 13.988281 76.394531 13.988281 C 76.617188 13.988281 76.835938 13.890625 76.992188 13.707031 L 76.976562 13.695312 L 76.988281 13.707031 L 76.992188 13.707031 C 77.113281 13.558594 77.171875 13.378906 77.171875 13.199219 C 77.171875 12.976562 77.078125 12.753906 76.894531 12.597656 L 73.222656 9.476562 L 73.210938 9.488281 " fill-opacity="1" fill-rule="nonzero"/><path fill="#c86d30" d="M 76.96875 12.6875 L 73.160156 9.445312 L 75.25 6.921875 L 79.0625 10.160156 L 76.96875 12.6875 " fill-opacity="1" fill-rule="nonzero"/><path fill="#c86d30" d="M 76.96875 12.6875 L 76.980469 12.671875 L 73.1875 9.445312 L 75.253906 6.949219 L 79.035156 10.164062 L 76.957031 12.671875 L 76.96875 12.6875 L 76.980469 12.671875 L 76.96875 12.6875 L 76.984375 12.699219 L 79.085938 10.160156 L 75.25 6.894531 L 73.132812 9.449219 L 76.972656 12.710938 L 76.984375 12.699219 L 76.96875 12.6875 " fill-opacity="1" fill-rule="nonzero"/><path fill="#512722" d="M 79.210938 11.0625 L 77.828125 12.734375 L 77.296875 12.28125 L 78.679688 10.613281 L 79.210938 11.0625 " fill-opacity="1" fill-rule="nonzero"/><path fill="#512722" d="M 79.210938 11.0625 L 79.195312 11.050781 L 77.824219 12.707031 L 77.324219 12.28125 L 78.683594 10.640625 L 79.199219 11.078125 L 79.210938 11.0625 L 79.195312 11.050781 L 79.210938 11.0625 L 79.222656 11.046875 L 78.679688 10.585938 L 77.269531 12.285156 L 77.828125 12.757812 L 79.238281 11.058594 L 79.222656 11.046875 L 79.210938 11.0625 " fill-opacity="1" fill-rule="nonzero"/><path fill="#351f17" d="M 79.710938 11.546875 L 78.394531 13.136719 C 78.273438 13.28125 78.054688 13.300781 77.910156 13.179688 C 77.761719 13.054688 77.742188 12.832031 77.867188 12.683594 L 79.183594 11.097656 C 79.304688 10.949219 79.523438 10.929688 79.667969 11.054688 C 79.816406 11.175781 79.835938 11.398438 79.710938 11.546875 " fill-opacity="1" fill-rule="nonzero"/><path fill="#512722" d="M 79.710938 11.546875 L 79.699219 11.535156 L 78.382812 13.121094 C 78.316406 13.199219 78.222656 13.242188 78.132812 13.242188 C 78.058594 13.242188 77.980469 13.214844 77.921875 13.164062 L 77.910156 13.179688 L 77.925781 13.167969 L 77.921875 13.167969 L 77.921875 13.164062 C 77.84375 13.097656 77.804688 13.003906 77.804688 12.910156 C 77.804688 12.835938 77.828125 12.757812 77.878906 12.695312 L 79.195312 11.109375 C 79.261719 11.03125 79.355469 10.988281 79.445312 10.988281 C 79.519531 10.988281 79.597656 11.015625 79.65625 11.066406 L 79.667969 11.054688 L 79.652344 11.054688 L 79.652344 11.0625 L 79.65625 11.066406 C 79.734375 11.132812 79.773438 11.226562 79.773438 11.320312 C 79.773438 11.398438 79.75 11.472656 79.699219 11.535156 L 79.710938 11.546875 L 79.726562 11.558594 C 79.78125 11.488281 79.8125 11.40625 79.8125 11.320312 C 79.8125 11.214844 79.765625 11.113281 79.679688 11.039062 L 79.667969 11.054688 L 79.6875 11.054688 L 79.6875 11.042969 L 79.679688 11.039062 C 79.613281 10.980469 79.53125 10.953125 79.445312 10.953125 C 79.34375 10.953125 79.238281 10.996094 79.167969 11.085938 L 77.851562 12.671875 C 77.796875 12.742188 77.765625 12.828125 77.765625 12.910156 C 77.765625 13.015625 77.8125 13.121094 77.898438 13.191406 L 77.910156 13.179688 L 77.890625 13.1875 L 77.894531 13.191406 L 77.898438 13.191406 C 77.964844 13.25 78.046875 13.277344 78.132812 13.277344 C 78.234375 13.277344 78.339844 13.234375 78.410156 13.148438 L 79.726562 11.558594 L 79.710938 11.546875 " fill-opacity="1" fill-rule="nonzero"/><path fill="#351f17" d="M 83.777344 15.390625 L 82.839844 16.523438 C 82.71875 16.671875 82.5 16.691406 82.351562 16.570312 C 82.207031 16.445312 82.1875 16.222656 82.308594 16.074219 L 83.25 14.941406 C 83.371094 14.792969 83.589844 14.773438 83.738281 14.898438 C 83.882812 15.023438 83.902344 15.242188 83.777344 15.390625 " fill-opacity="1" fill-rule="nonzero"/><path fill="#351f17" d="M 83.777344 15.390625 L 83.765625 15.378906 L 82.824219 16.511719 C 82.761719 16.589844 82.667969 16.632812 82.574219 16.632812 C 82.5 16.632812 82.425781 16.605469 82.363281 16.554688 C 82.289062 16.488281 82.25 16.394531 82.25 16.300781 C 82.25 16.226562 82.273438 16.148438 82.324219 16.085938 L 83.265625 14.953125 C 83.328125 14.875 83.421875 14.835938 83.515625 14.835938 C 83.589844 14.835938 83.664062 14.859375 83.722656 14.914062 C 83.800781 14.976562 83.839844 15.070312 83.839844 15.167969 C 83.839844 15.242188 83.816406 15.316406 83.765625 15.378906 L 83.777344 15.390625 L 83.792969 15.402344 C 83.851562 15.335938 83.878906 15.25 83.878906 15.167969 C 83.878906 15.0625 83.835938 14.957031 83.75 14.882812 C 83.679688 14.824219 83.597656 14.796875 83.515625 14.796875 C 83.410156 14.796875 83.308594 14.84375 83.234375 14.929688 L 82.296875 16.0625 C 82.238281 16.132812 82.210938 16.214844 82.210938 16.300781 C 82.210938 16.40625 82.253906 16.511719 82.339844 16.582031 C 82.410156 16.640625 82.492188 16.667969 82.574219 16.667969 C 82.679688 16.667969 82.78125 16.625 82.855469 16.539062 L 83.792969 15.402344 L 83.777344 15.390625 " fill-opacity="1" fill-rule="nonzero"/><path fill="#351f17" d="M 84.839844 16.292969 L 83.898438 17.425781 C 83.777344 17.574219 83.558594 17.59375 83.414062 17.46875 C 83.265625 17.34375 83.246094 17.125 83.371094 16.976562 L 84.308594 15.84375 C 84.433594 15.695312 84.648438 15.675781 84.796875 15.800781 C 84.941406 15.921875 84.960938 16.144531 84.839844 16.292969 " fill-opacity="1" fill-rule="nonzero"/><path fill="#351f17" d="M 84.839844 16.292969 L 84.824219 16.28125 L 83.886719 17.414062 C 83.820312 17.492188 83.726562 17.53125 83.636719 17.53125 C 83.5625 17.53125 83.484375 17.507812 83.425781 17.457031 L 83.414062 17.46875 L 83.425781 17.457031 C 83.347656 17.390625 83.308594 17.296875 83.308594 17.203125 C 83.308594 17.125 83.332031 17.050781 83.382812 16.988281 L 84.324219 15.855469 C 84.390625 15.777344 84.480469 15.734375 84.574219 15.734375 C 84.648438 15.734375 84.722656 15.761719 84.785156 15.8125 L 84.796875 15.800781 L 84.777344 15.800781 L 84.777344 15.808594 L 84.785156 15.8125 C 84.863281 15.878906 84.902344 15.972656 84.902344 16.066406 C 84.902344 16.140625 84.875 16.21875 84.824219 16.28125 L 84.851562 16.304688 C 84.910156 16.234375 84.9375 16.152344 84.9375 16.066406 C 84.9375 15.960938 84.894531 15.859375 84.808594 15.785156 L 84.796875 15.800781 L 84.816406 15.800781 L 84.816406 15.789062 L 84.808594 15.785156 C 84.742188 15.726562 84.65625 15.699219 84.574219 15.699219 C 84.472656 15.699219 84.367188 15.742188 84.296875 15.832031 L 83.355469 16.964844 C 83.300781 17.035156 83.269531 17.117188 83.269531 17.203125 C 83.269531 17.304688 83.316406 17.410156 83.402344 17.484375 L 83.414062 17.46875 L 83.398438 17.484375 L 83.402344 17.484375 C 83.46875 17.542969 83.550781 17.570312 83.636719 17.570312 C 83.738281 17.570312 83.84375 17.523438 83.914062 17.4375 L 84.851562 16.304688 L 84.839844 16.292969 " fill-opacity="1" fill-rule="nonzero"/><path fill="#512722" d="M 79.710938 11.546875 L 83.25 14.941406 L 82.308594 16.074219 L 78.394531 13.136719 " fill-opacity="1" fill-rule="nonzero"/><path fill="#512722" d="M 79.699219 11.558594 L 83.222656 14.941406 L 82.308594 16.050781 L 78.40625 13.121094 L 78.382812 13.148438 L 82.3125 16.101562 L 83.273438 14.941406 L 79.722656 11.53125 L 79.699219 11.558594 " fill-opacity="1" fill-rule="nonzero"/><path fill="#512722" d="M 84.34375 15.804688 L 83.339844 17.015625 L 82.808594 16.566406 L 83.8125 15.351562 L 84.34375 15.804688 " fill-opacity="1" fill-rule="nonzero"/><path fill="#512722" d="M 84.34375 15.804688 L 84.328125 15.792969 L 83.335938 16.988281 L 82.835938 16.5625 L 83.816406 15.378906 L 84.332031 15.816406 L 84.34375 15.804688 L 84.328125 15.792969 L 84.34375 15.804688 L 84.355469 15.789062 L 83.808594 15.328125 L 82.78125 16.566406 L 83.339844 17.042969 L 84.367188 15.800781 L 84.355469 15.789062 L 84.34375 15.804688 " fill-opacity="1" fill-rule="nonzero"/><path fill="#512722" d="M 90.40625 20.921875 L 89.402344 22.136719 L 83.878906 17.441406 L 84.882812 16.226562 L 90.40625 20.921875 " fill-opacity="1" fill-rule="nonzero"/><path fill="#512722" d="M 90.40625 20.921875 L 90.394531 20.910156 L 89.402344 22.109375 L 83.90625 17.4375 L 84.886719 16.253906 L 90.394531 20.9375 L 90.40625 20.921875 L 90.394531 20.910156 L 90.40625 20.921875 L 90.417969 20.910156 L 84.882812 16.203125 L 83.851562 17.441406 L 89.40625 22.164062 L 90.433594 20.921875 L 90.417969 20.910156 L 90.40625 20.921875 " fill-opacity="1" fill-rule="nonzero"/><g clip-path="url(#463c1fc32d)"><path fill="#512722" d="M 91.253906 21.621094 C 91.253906 22.285156 90.699219 22.824219 90.015625 22.824219 C 89.332031 22.824219 88.777344 22.285156 88.777344 21.621094 C 88.777344 20.960938 89.332031 20.421875 90.015625 20.421875 C 90.699219 20.421875 91.253906 20.960938 91.253906 21.621094 " fill-opacity="1" fill-rule="nonzero"/></g><g clip-path="url(#2046c369d6)"><path fill="#512722" d="M 91.253906 21.621094 L 91.234375 21.621094 C 91.234375 21.949219 91.097656 22.246094 90.878906 22.460938 C 90.65625 22.671875 90.351562 22.804688 90.015625 22.804688 C 89.675781 22.804688 89.371094 22.671875 89.152344 22.460938 C 88.929688 22.246094 88.792969 21.949219 88.792969 21.621094 C 88.792969 21.296875 88.929688 21 89.152344 20.785156 C 89.371094 20.574219 89.675781 20.441406 90.015625 20.441406 C 90.351562 20.441406 90.65625 20.574219 90.878906 20.785156 C 91.097656 21 91.234375 21.296875 91.234375 21.621094 L 91.273438 21.621094 C 91.273438 21.285156 91.132812 20.980469 90.902344 20.757812 C 90.675781 20.539062 90.363281 20.402344 90.015625 20.402344 C 89.667969 20.402344 89.351562 20.539062 89.125 20.757812 C 88.898438 20.980469 88.757812 21.285156 88.757812 21.621094 C 88.757812 21.960938 88.898438 22.265625 89.125 22.488281 C 89.351562 22.707031 89.667969 22.84375 90.015625 22.84375 C 90.363281 22.84375 90.675781 22.707031 90.902344 22.488281 C 91.132812 22.265625 91.273438 21.960938 91.273438 21.621094 L 91.253906 21.621094 " fill-opacity="1" fill-rule="nonzero"/></g><path fill="#d2864e" d="M 76.214844 12.019531 L 73.371094 9.601562 L 73.1875 9.445312 L 75.253906 6.949219 L 78.28125 9.523438 L 76.214844 12.019531 " fill-opacity="1" fill-rule="nonzero"/><path fill="#dbc5b0" d="M 76.214844 12.019531 L 73.371094 9.601562 L 73.1875 9.445312 L 75.253906 6.949219 L 78.28125 9.523438 L 76.214844 12.019531 " fill-opacity="1" fill-rule="nonzero"/><path fill="#d2864e" d="M 73.371094 9.601562 L 73.164062 9.425781 L 75.230469 6.929688 L 75.253906 6.949219 L 73.1875 9.445312 L 73.371094 9.601562 " fill-opacity="1" fill-rule="nonzero"/><path fill="#dbc5b0" d="M 73.371094 9.601562 L 73.164062 9.425781 L 75.230469 6.929688 L 75.253906 6.949219 L 73.1875 9.445312 L 73.371094 9.601562 " fill-opacity="1" fill-rule="nonzero"/><path fill="#dbc5b0" d="M 73.15625 9.421875 C 73.148438 9.417969 73.136719 9.414062 73.128906 9.40625 L 75.210938 6.894531 C 75.214844 6.902344 75.222656 6.910156 75.230469 6.917969 L 73.15625 9.421875 " fill-opacity="1" fill-rule="nonzero"/><path fill="#6d423a" d="M 75.230469 6.917969 C 75.222656 6.910156 75.214844 6.902344 75.210938 6.894531 L 75.226562 6.875 L 75.25 6.894531 L 75.230469 6.917969 " fill-opacity="1" fill-rule="nonzero"/><path fill="#dbc5b0" d="M 75.230469 6.917969 C 75.222656 6.910156 75.214844 6.902344 75.210938 6.894531 L 75.226562 6.875 L 75.25 6.894531 L 75.230469 6.917969 " fill-opacity="1" fill-rule="nonzero"/><path fill="#6d423a" d="M 76.21875 12.070312 L 73.183594 9.492188 L 76.21875 12.070312 " fill-opacity="1" fill-rule="nonzero"/><path fill="#dbc5b0" d="M 76.21875 12.070312 L 73.183594 9.492188 L 76.21875 12.070312 " fill-opacity="1" fill-rule="nonzero"/><path fill="#6d423a" d="M 73.183594 9.492188 L 73.113281 9.429688 L 73.128906 9.40625 C 73.136719 9.414062 73.148438 9.417969 73.15625 9.421875 L 73.132812 9.449219 L 73.183594 9.492188 " fill-opacity="1" fill-rule="nonzero"/><path fill="#dbc5b0" d="M 73.183594 9.492188 L 73.113281 9.429688 L 73.128906 9.40625 C 73.136719 9.414062 73.148438 9.417969 73.15625 9.421875 L 73.132812 9.449219 L 73.183594 9.492188 " fill-opacity="1" fill-rule="nonzero"/><path fill="#6d423a" d="M 78.222656 9.421875 L 77.167969 8.527344 L 75.992188 7.527344 L 78.222656 9.421875 " fill-opacity="1" fill-rule="nonzero"/><path fill="#dbc5b0" d="M 78.222656 9.421875 L 77.167969 8.527344 L 75.992188 7.527344 L 78.222656 9.421875 " fill-opacity="1" fill-rule="nonzero"/><path fill="#6d423a" d="M 78.335938 9.519531 L 77.167969 8.527344 L 78.222656 9.421875 L 78.335938 9.519531 " fill-opacity="1" fill-rule="nonzero"/><path fill="#dbc5b0" d="M 78.335938 9.519531 L 77.167969 8.527344 L 78.222656 9.421875 L 78.335938 9.519531 " fill-opacity="1" fill-rule="nonzero"/><path fill="#d2864e" d="M 76.242188 12.042969 L 76.230469 12.03125 L 73.371094 9.601562 L 76.214844 12.019531 L 78.28125 9.523438 L 75.253906 6.949219 L 78.308594 9.546875 L 76.242188 12.042969 " fill-opacity="1" fill-rule="nonzero"/><path fill="#dbc5b0" d="M 76.242188 12.042969 L 76.230469 12.03125 L 73.371094 9.601562 L 76.214844 12.019531 L 78.28125 9.523438 L 75.253906 6.949219 L 78.308594 9.546875 L 76.242188 12.042969 " fill-opacity="1" fill-rule="nonzero"/><path fill="#d2864e" d="M 76.21875 12.070312 L 73.183594 9.492188 L 73.132812 9.449219 L 73.15625 9.421875 L 75.230469 6.917969 L 75.25 6.894531 L 75.992188 7.527344 L 77.167969 8.527344 L 78.335938 9.519531 L 78.308594 9.546875 L 75.253906 6.949219 L 75.230469 6.929688 L 73.164062 9.425781 L 73.371094 9.601562 L 76.230469 12.03125 L 76.21875 12.046875 L 76.230469 12.03125 L 76.242188 12.042969 L 76.230469 12.058594 L 76.21875 12.070312 " fill-opacity="1" fill-rule="nonzero"/><path fill="#dbc5b0" d="M 76.21875 12.070312 L 73.183594 9.492188 L 73.132812 9.449219 L 73.15625 9.421875 L 75.230469 6.917969 L 75.25 6.894531 L 75.992188 7.527344 L 77.167969 8.527344 L 78.335938 9.519531 L 78.308594 9.546875 L 75.253906 6.949219 L 75.230469 6.929688 L 73.164062 9.425781 L 73.371094 9.601562 L 76.230469 12.03125 L 76.21875 12.046875 L 76.230469 12.03125 L 76.242188 12.042969 L 76.230469 12.058594 L 76.21875 12.070312 " fill-opacity="1" fill-rule="nonzero"/><path fill="#f09528" d="M 76.964844 12.683594 L 73.136719 9.425781 L 75.230469 6.902344 L 79.058594 10.15625 L 76.964844 12.683594 " fill-opacity="1" fill-rule="nonzero"/><path fill="#f09528" d="M 76.964844 12.683594 L 76.980469 12.667969 L 73.164062 9.425781 L 75.230469 6.929688 L 79.03125 10.160156 L 76.953125 12.671875 L 76.964844 12.683594 L 76.980469 12.667969 L 76.964844 12.683594 L 76.980469 12.695312 L 79.082031 10.15625 L 75.226562 6.875 L 73.113281 9.429688 L 76.96875 12.707031 L 76.980469 12.695312 L 76.964844 12.683594 " fill-opacity="1" fill-rule="nonzero"/><path fill="#231f20" d="M 82.191406 21.101562 L 71.535156 21.101562 C 71.199219 21.101562 70.921875 20.824219 70.921875 20.480469 C 70.921875 20.140625 71.199219 19.859375 71.535156 19.859375 L 82.191406 19.859375 C 82.53125 19.859375 82.804688 20.140625 82.804688 20.480469 C 82.804688 20.824219 82.53125 21.101562 82.191406 21.101562 " fill-opacity="1" fill-rule="nonzero"/><path fill="#231f20" d="M 82.191406 21.101562 L 82.191406 21.082031 L 71.535156 21.082031 C 71.371094 21.082031 71.222656 21.015625 71.117188 20.90625 C 71.007812 20.796875 70.941406 20.648438 70.941406 20.480469 C 70.941406 20.316406 71.007812 20.164062 71.117188 20.054688 C 71.222656 19.949219 71.371094 19.878906 71.535156 19.878906 L 82.191406 19.878906 C 82.359375 19.878906 82.503906 19.949219 82.613281 20.054688 C 82.722656 20.164062 82.789062 20.316406 82.789062 20.480469 C 82.789062 20.648438 82.722656 20.796875 82.613281 20.90625 C 82.503906 21.015625 82.359375 21.082031 82.191406 21.082031 L 82.191406 21.121094 C 82.542969 21.121094 82.824219 20.835938 82.824219 20.480469 C 82.824219 20.128906 82.542969 19.84375 82.191406 19.84375 L 71.535156 19.84375 C 71.1875 19.84375 70.90625 20.128906 70.90625 20.480469 C 70.90625 20.835938 71.1875 21.121094 71.535156 21.121094 L 82.191406 21.121094 L 82.191406 21.101562 " fill-opacity="1" fill-rule="nonzero"/><path fill="#351f17" d="M 83.011719 22.488281 L 70.871094 22.488281 C 70.53125 22.488281 70.257812 22.210938 70.257812 21.867188 L 70.257812 20.976562 C 70.257812 20.636719 70.53125 20.359375 70.871094 20.359375 L 83.011719 20.359375 C 83.351562 20.359375 83.625 20.636719 83.625 20.976562 L 83.625 21.867188 C 83.625 22.210938 83.351562 22.488281 83.011719 22.488281 " fill-opacity="1" fill-rule="nonzero"/><path fill="#351f17" d="M 83.011719 22.488281 L 83.011719 22.46875 L 70.871094 22.46875 C 70.707031 22.46875 70.558594 22.402344 70.449219 22.292969 C 70.34375 22.183594 70.277344 22.035156 70.277344 21.867188 L 70.277344 20.976562 C 70.277344 20.8125 70.34375 20.660156 70.449219 20.550781 C 70.558594 20.445312 70.707031 20.375 70.871094 20.375 L 83.011719 20.375 C 83.175781 20.375 83.324219 20.445312 83.433594 20.550781 C 83.542969 20.660156 83.609375 20.8125 83.609375 20.976562 L 83.609375 21.867188 C 83.609375 22.035156 83.542969 22.183594 83.433594 22.292969 C 83.324219 22.402344 83.175781 22.46875 83.011719 22.46875 L 83.011719 22.507812 C 83.363281 22.507812 83.644531 22.21875 83.644531 21.867188 L 83.644531 20.976562 C 83.644531 20.625 83.363281 20.339844 83.011719 20.339844 L 70.871094 20.339844 C 70.523438 20.339844 70.238281 20.625 70.238281 20.976562 L 70.238281 21.867188 C 70.238281 22.21875 70.523438 22.507812 70.871094 22.507812 L 83.011719 22.507812 L 83.011719 22.488281 " fill-opacity="1" fill-rule="nonzero"/><g clip-path="url(#255bfe5a3b)"><path fill="#231f20" d="M 83.757812 23.199219 L 70.128906 23.199219 C 69.789062 23.199219 69.515625 22.921875 69.515625 22.578125 C 69.515625 22.238281 69.789062 21.957031 70.128906 21.957031 L 83.757812 21.957031 C 84.09375 21.957031 84.367188 22.238281 84.367188 22.578125 C 84.367188 22.921875 84.09375 23.199219 83.757812 23.199219 " fill-opacity="1" fill-rule="nonzero"/></g><g clip-path="url(#dcec76b827)"><path fill="#231f20" d="M 83.757812 23.199219 L 83.757812 23.179688 L 70.128906 23.179688 C 69.964844 23.179688 69.816406 23.113281 69.707031 23.003906 C 69.601562 22.894531 69.535156 22.746094 69.535156 22.578125 C 69.535156 22.414062 69.601562 22.261719 69.707031 22.152344 C 69.816406 22.042969 69.964844 21.976562 70.128906 21.976562 L 83.757812 21.976562 C 83.921875 21.976562 84.070312 22.042969 84.175781 22.152344 C 84.285156 22.261719 84.351562 22.414062 84.351562 22.578125 C 84.351562 22.746094 84.285156 22.894531 84.175781 23.003906 C 84.070312 23.113281 83.921875 23.179688 83.757812 23.179688 L 83.757812 23.21875 C 84.105469 23.21875 84.386719 22.933594 84.386719 22.578125 C 84.386719 22.226562 84.105469 21.941406 83.757812 21.941406 L 70.128906 21.941406 C 69.78125 21.941406 69.496094 22.226562 69.496094 22.578125 C 69.496094 22.933594 69.78125 23.21875 70.128906 23.21875 L 83.757812 23.21875 L 83.757812 23.199219 " fill-opacity="1" fill-rule="nonzero"/></g><g clip-path="url(#cce238900d)"><path fill="#231f20" d="M 84.367188 23.199219 L 69.515625 23.199219 L 69.515625 22.578125 L 84.367188 22.578125 L 84.367188 23.199219 " fill-opacity="1" fill-rule="nonzero"/></g><g clip-path="url(#074c31250e)"><path fill="#231f20" d="M 84.367188 23.199219 L 84.367188 23.179688 L 69.535156 23.179688 L 69.535156 22.597656 L 84.351562 22.597656 L 84.351562 23.199219 L 84.367188 23.199219 L 84.367188 23.179688 L 84.367188 23.199219 L 84.386719 23.199219 L 84.386719 22.5625 L 69.496094 22.5625 L 69.496094 23.21875 L 84.386719 23.21875 L 84.386719 23.199219 L 84.367188 23.199219 " fill-opacity="1" fill-rule="nonzero"/></g></svg>